<?xml version="1.0" encoding="UTF-8"?>
<svg width="114px" height="179px" viewBox="0 0 114 179" version="1.1" xmlns="http://www.w3.org/2000/svg" xmlns:xlink="http://www.w3.org/1999/xlink">
    <title>marker</title>
    <g id="Page-1" stroke="none" stroke-width="1" fill="none" fill-rule="evenodd">
        <g id="marker" transform="translate(0.981335, 0.000000)">
            <path d="M56.1176645,0 C86.005215,0 110.433777,23.372709 112.122477,52.8372539 C112.175776,53.2473353 112.205135,53.6639105 112.215665,54.0856291 C112.231168,54.7065353 112.23101,55.3442367 112.215191,55.9987334 L112.215665,56.098 C112.215665,63.3900008 110.824361,70.3570453 108.292732,76.7481559 C101.157338,100.260832 84.3272254,134.17307 57.8006645,178.483897 C30.130036,135.549472 12.3943687,102.16112 4.5936628,78.3188415 C1.6505157,71.5067609 0.0196645109,63.9928333 0.0196645109,56.098 C0.0196645109,56.0419118 0.0197468246,55.9858428 0.0199113377,55.9297931 C-0.00660815363,55.0645373 -0.00658356191,54.2247182 0.0196645109,53.4100961 C0.0406589268,52.7585239 0.102402305,52.1203759 0.203318417,51.4956085 C2.54648193,22.6666019 26.6850389,0 56.1176645,0 Z" id="Combined-Shape" fill="#55ACEE"></path>
            <path d="M90.4796645,40.316 C88.0756645,41.382 85.4896645,42.103 82.7776645,42.425 C85.5466645,40.766 87.6716645,38.141 88.6746645,35.008 C86.0836645,36.545 83.2126645,37.66 80.1596645,38.261 C77.7136645,35.656 74.2286645,34.028 70.3696645,34.028 C62.9656645,34.028 56.9606645,40.033 56.9606645,47.437 C56.9606645,48.488 57.0796645,49.511 57.3096645,50.493 C46.1656645,49.934 36.2846645,44.596 29.6706645,36.481 C28.5166645,38.461 27.8546645,40.766 27.8546645,43.223 C27.8546645,47.874 30.2236645,51.98 33.8196645,54.384 C31.6226645,54.315 29.5536645,53.712 27.7466645,52.705 C27.7456645,52.762 27.7456645,52.819 27.7456645,52.875 C27.7456645,59.372 32.3696645,64.791 38.5026645,66.022 C37.3786645,66.33 36.1916645,66.493 34.9706645,66.493 C34.1046645,66.493 33.2656645,66.41 32.4476645,66.254 C34.1536645,71.58 39.1046645,75.457 44.9736645,75.566 C40.3836645,79.163 34.6026645,81.306 28.3186645,81.306 C27.2386645,81.306 26.1686645,81.243 25.1216645,81.118 C31.0526645,84.924 38.1026645,87.143 45.6746645,87.143 C70.3386645,87.143 83.8266645,66.711 83.8266645,48.99 C83.8266645,48.409 83.8136645,47.83 83.7876645,47.256 C86.4096645,45.366 88.6826645,43.005 90.4796645,40.316 L90.4796645,40.316 Z" id="Path" fill="#F1F2F2" fill-rule="nonzero"></path>
        </g>
    </g>
</svg>